<?xml version="1.0" encoding="utf-8"?>
<!-- Generator: Adobe Illustrator 23.1.0, SVG Export Plug-In . SVG Version: 6.00 Build 0)  -->
<svg version="1.1" id="Layer_1" xmlns="http://www.w3.org/2000/svg" xmlns:xlink="http://www.w3.org/1999/xlink" x="0px" y="0px"
	 viewBox="0 0 100 100" style="enable-background:new 0 0 100 100;" xml:space="preserve">
<style type="text/css">
	.st0{fill:#4E4E4E;}
	.st1{fill:none;stroke:#4E4E4E;stroke-width:3;stroke-miterlimit:10;}
</style>
<path class="st0" d="M68.4,49.3c-9.6-5.7-18.6-11.1-28.5-17c0,5.9,0,11,0,16c0,7.1,0,14.3,0,21.4c0,1.3,0.3,2.9-1.7,3
	C36.5,73,36,71.7,36,70.3c0-13.5-0.1-26.9,0-40.4c0-2.7,1.6-3.5,4-2.1c10.7,6.4,21.4,12.7,32.1,19.1c2.7,1.6,2.4,3.3-0.1,4.9
	c-7.1,4.6-14.2,9.2-21.4,13.7c-1.1,0.7-2.5,1.5-3.5,0.1c-1.2-1.7,0.3-2.7,1.5-3.5C55.1,57.9,61.5,53.8,68.4,49.3z"/>
<circle class="st1" cx="50" cy="50" r="47"/>
</svg>
